<?xml version="1.0" encoding="utf-8"?>
<svg version="1.1" xmlns="http://www.w3.org/2000/svg" xmlns:xlink="http://www.w3.org/1999/xlink" x="0px" y="0px" viewBox="0 0 1000 1000" enable-background="new 0 0 1000 1000" xml:space="preserve">
<g><g transform="translate(0.000000,512.000000) scale(0.100000,-0.100000)"><path d="M2355.2,4998.6c-111.2-42.2-184-103.5-226.2-191.7c-38.3-80.5-40.3-111.2-40.3-956.4v-872.1l44.1-84.3c24.9-46,82.4-109.2,126.5-141.8l82.4-57.5h322h322l82.4,57.5c44.1,32.6,101.6,95.8,126.5,141.8l44.1,84.3v875.9v875.9l-44.1,84.3c-30.7,55.6-76.7,103.5-138,141.8c-90.1,55.6-99.7,57.5-362.2,63.2C2504.7,5021.6,2403.1,5015.8,2355.2,4998.6z M2916.8,4684.2c32.6-28.8,34.5-80.5,34.5-824.1c0-511.7-7.7-806.9-19.2-831.8c-19.2-32.6-42.2-36.4-268.3-36.4c-226.2,0-249.2,3.8-268.3,36.4c-11.5,24.9-19.2,320.1-19.2,828c0,709.2,3.8,793.5,32.6,826.1c26.8,28.7,61.3,34.5,251.1,34.5C2838.2,4716.8,2888,4711.1,2916.8,4684.2z"/><path d="M7031.8,4998.6c-111.2-42.2-184-103.5-226.2-191.7c-38.3-80.5-40.2-111.2-40.2-956.4v-872.1l44.1-84.3c24.9-46,82.4-109.2,126.5-141.8l82.4-57.5h322h322l82.4,57.5c44.1,32.6,101.6,95.8,126.5,141.8l44.1,84.3v875.9v875.9l-44.1,84.3c-30.7,55.6-76.7,103.5-138,141.8c-90.1,55.6-99.7,57.5-362.3,63.2C7181.2,5021.6,7079.7,5015.8,7031.8,4998.6z M7593.3,4684.2c32.6-28.8,34.5-80.5,34.5-824.1c0-511.7-7.7-806.9-19.2-831.8c-19.2-32.6-42.2-36.4-268.3-36.4s-249.2,3.8-268.3,36.4c-11.5,24.9-19.2,320.1-19.2,828c0,709.2,3.8,793.5,32.6,826.1c26.8,28.7,61.3,34.5,251.1,34.5C7514.7,4716.8,7564.6,4711.1,7593.3,4684.2z"/><path d="M726.1,3952.1c-174.4-69-318.2-222.3-364.2-392.9c-15.3-57.5-23-1171-21.1-3971.2v-3892.7l51.8-116.9c61.3-136.1,178.2-254.9,312.4-316.2l90.1-42.2h4207h4207l90.1,42.2c132.2,61.3,251.1,180.2,310.5,310.5l49.8,113.1l-3.8,3944.4l-5.8,3946.3l-44.1,84.3c-67.1,122.7-199.3,243.4-322,287.5c-95.8,36.4-147.6,40.2-553.9,40.2h-450.4v-141.8v-143.7l437-5.8c414-5.7,438.9-7.7,506-49.8c40.2-24.9,86.3-76.7,109.3-126.5l40.2-80.5V-392.9v-3833.2l-42.2-84.3c-24.9-46-69-101.6-97.7-122.7l-53.7-40.2H5002.1H825.8l-53.7,40.2c-28.8,21.1-72.8,76.7-97.7,122.7l-42.2,84.3V-389v3835.1l44.1,82.4c30.7,57.5,70.9,97.7,128.4,128.4c78.6,42.2,101.6,44.1,502.2,44.1h417.8v143.7v143.7h-454.2C877.5,3986.6,802.8,3982.8,726.1,3952.1z"/><path d="M3583.8,3844.8V3701h1408.7h1408.7v143.7v143.7H4992.5H3583.8V3844.8z"/><path d="M5515.7,1404.9l-130.3-5.8V941.1v-460H5855h469.6v460v460l-99.7,1.9C5870.3,1408.7,5626.9,1410.7,5515.7,1404.9z"/><path d="M7135.2,1404.9l-44.1-5.8v-460V481.1h469.6h469.6v465.7v463.8h-425.5C7369.1,1410.7,7158.2,1408.7,7135.2,1404.9z"/><path d="M3029.9,1366.6c-120.8-46-293.3-210.8-348.8-333.5c-69-153.3-65.2-387.1,7.7-536.7C2876.5,115,3380.6,15.4,3694.9,299c256.8,231.9,279.8,634.4,47.9,891.2c-134.2,147.6-276,210.8-475.3,208.9C3173.6,1399.2,3081.6,1385.8,3029.9,1366.6z"/><path d="M2836.3-34.4c0-19.2,410.2-937.2,425.5-950.7c9.6-9.6,437,925.7,437,954.5c0,7.7-193.6,13.4-431.2,13.4C3026-17.2,2836.3-24.9,2836.3-34.4z"/><path d="M2405-63.2c-199.3-63.3-322-166.8-396.7-327.8c-40.2-90.1-42.2-120.7-44.1-536.7v-440.8l628.6-5.7c345-1.9,626.7,1.9,626.7,9.6c0,9.6-136.1,310.5-300.9,670.8L2615.9-36.4l-67.1-1.9C2512.4-38.3,2447.2-49.8,2405-63.2z"/><path d="M3616.4-686.1c-164.8-360.3-300.9-663.2-300.9-672.7c0-11.5,230-19.2,622.9-19.2h622.9v437c0,492.6-11.5,557.7-126.5,690c-84.3,97.8-274.1,193.6-412.1,208.9l-103.5,9.6L3616.4-686.1z"/><path d="M5385.4-893.1v-465.7H5855h469.6v460v460l-70.9,1.9c-40.2,1.9-251.1,3.8-469.6,5.7l-398.7,1.9V-893.1z"/><path d="M7173.6-435l-82.4-5.7v-460v-458.1h469.6h469.6v465.7v463.8h-389.1C7428.5-429.3,7217.6-431.2,7173.6-435z"/><path d="M1962.3-2276.9c-3.8-3.8-7.7-214.7-7.7-465.7v-456.2h469.6h469.6v460v460l-42.2,1.9C2688.7-2271.1,1970-2271.1,1962.3-2276.9z"/><path d="M3781.2-2275l-101.6-5.7v-460v-458.1h469.6h469.6v460v460l-128.4,1.9C4005.4-2271.1,3869.4-2269.2,3781.2-2275z"/><path d="M5393.1-2276.9c-3.8-3.8-7.7-214.7-7.7-465.7v-456.2H5855h469.6v460c0,354.6-5.7,460-23,461.9C6205.7-2271.1,5398.8-2271.1,5393.1-2276.9z"/><path d="M7211.9-2275l-120.8-5.7v-458.1v-460h469.6h469.6v460v460l-109.3,1.9C7526.2-2271.1,7315.4-2269.2,7211.9-2275z"/></g></g>
</svg>