<?xml version="1.0" encoding="UTF-8" standalone="no"?>
<svg width="24" height="24" xmlns="http://www.w3.org/2000/svg">
 <g>
  <title>Layer 1</title>
  <g id="svg_1">
   <path id="svg_2" fill="#bdc3c7" d="m5,3.999976c-1.1046,0 -2,0.9 -2,2l0,14c0,1.1 0.8954,2 2,2l6,0l2,0l6,0c1.105,0 2,-0.9 2,-2l0,-14c0,-1.1 -0.895,-2 -2,-2l-6,0l-2,0l-6,0z"/>
   <path id="svg_3" fill="#ecf0f1" d="m5,3c-1.1046,0 -2,0.8954 -2,2l0,14c0,1.105 0.8954,2 2,2l6,0l2,0l6,0c1.105,0 2,-0.895 2,-2l0,-14c0,-1.1046 -0.895,-2 -2,-2l-6,0l-2,0l-6,0z"/>
   <path id="svg_4" fill="#e74c3c" d="m5,2.999976c-1.1046,0 -2,0.9 -2,2l0,3l18,0l0,-3c0,-1.1 -0.895,-2 -2,-2l-6,0l-2,0l-6,0z"/>
   <path id="svg_5" fill="#c0392b" d="m7.5,5.5a1.5,1.5 0 1 1 -3,0a1.5,1.5 0 1 1 3,0z"/>
   <path id="svg_6" fill="#bdc3c7" d="m6,1c-0.5523,0 -1,0.4477 -1,1l0,3c0,0.5523 0.4477,1 1,1s1,-0.4477 1,-1l0,-3c0,-0.5523 -0.4477,-1 -1,-1z"/>
   <path id="svg_7" fill="#c0392b" d="m19.5,5.5a1.5,1.5 0 1 1 -3,0a1.5,1.5 0 1 1 3,0z"/>
   <g id="svg_8" fill="#bdc3c7">
    <path id="svg_9" d="m18,0.999976c-0.552,0 -1,0.4 -1,1l0,3c0,0.5 0.448,1 1,1s1,-0.5 1,-1l0,-3c0,-0.6 -0.448,-1 -1,-1z"/>
    <path id="svg_10" d="m5,10.999976l0,2l2,0l0,-2l-2,0zm3,0l0,2l2,0l0,-2l-2,0zm3,0l0,2l2,0l0,-2l-2,0zm3,0l0,2l2,0l0,-2l-2,0zm3,0l0,2l2,0l0,-2l-2,0z"/>
    <path id="svg_11" d="m5,13.999976l0,2l2,0l0,-2l-2,0zm3,0l0,2l2,0l0,-2l-2,0zm3,0l0,2l2,0l0,-2l-2,0zm3,0l0,2l2,0l0,-2l-2,0zm3,0l0,2l2,0l0,-2l-2,0z"/>
    <path id="svg_12" d="m5,16.999976l0,2l2,0l0,-2l-2,0zm3,0l0,2l2,0l0,-2l-2,0zm3,0l0,2l2,0l0,-2l-2,0zm3,0l0,2l2,0l0,-2l-2,0zm3,0l0,2l2,0l0,-2l-2,0z"/>
   </g>
   <rect id="svg_13" y="8" x="3" width="18" height="1" fill="#c0392b"/>
   <g stroke="null" id="svg_53">
    <path stroke="null" id="svg_18" fill="#80D440" d="m14.151513,15.306968l2.259246,0l1.035488,3.755642l-3.294734,0l0,-3.755642z"/>
    <path stroke="null" id="svg_19" fill="#FFC729" d="m13.492566,14.717076l-0.753082,-0.294946l-0.658947,0.786522l0.470676,0.983152l-1.026074,0.521071l-0.197684,1.051973l2.165111,0l0.376541,-1.081468l-0.376541,-1.966305z"/>
    <g stroke="null" transform="matrix(0.023533814215941876,0,0,0.0245788110578067,33.43405366566781,30.83824244743701) " id="svg_20">
     <path stroke="null" id="svg_21" fill="#C89406" d="m-881.354669,-583.496896c-1.2,0 -2.4,-0.4 -3.6,-0.8c-15.6,-8.4 -26.4,-28.8 -26.4,-51.2s18,-40.4 40.4,-40.4c6.8,0 12.8,1.6 18.8,4.4c4,2 5.6,6.8 3.6,10.8s-6.8,5.6 -10.8,3.6s-7.2,-2.8 -11.6,-2.8c-13.6,0 -24.4,10.8 -24.4,24.4c0,16 7.6,31.6 17.6,36.8c4,2 5.2,6.8 3.2,10.8c-1.2,2.8 -4,4.4 -6.8,4.4z"/>
     <path stroke="null" id="svg_22" fill="#C89406" d="m-896.954669,-524.296896l-40.4,0c-4.4,0 -8.8,-2 -11.2,-5.6s-3.2,-7.6 -2,-11.6l6.4,-23.2c8,-26 26.4,-32.4 46.4,-37.2c4.4,-1.2 8.8,1.6 9.6,6c1.2,4.4 -1.6,8.8 -6,9.6c-20,4.8 -29.6,10 -34.8,26l-5.6,20l37.6,0c4.4,0 8,3.6 8,8s-3.6,8 -8,8z"/>
    </g>
    <path stroke="null" id="svg_23" fill="#80D440" d="m17.135601,19.337893l-4.932687,0c-0.141203,0 -0.254165,-0.147473 -0.207098,-0.294946l0.254165,-0.924163c0.244752,-0.855343 0.809563,-1.091299 1.572059,-1.278098"/>
    <path stroke="null" id="svg_24" fill="#6EA62A" d="m17.135601,19.534523l-4.932687,0c-0.131789,0 -0.254165,-0.068821 -0.329473,-0.176967c-0.075308,-0.108147 -0.094135,-0.245788 -0.056481,-0.373598l0.254165,-0.914332c0.282406,-0.992984 0.969593,-1.238772 1.703848,-1.41574c0.103549,-0.029495 0.207098,0.039326 0.225925,0.147473c0.028241,0.108147 -0.037654,0.216294 -0.141203,0.235957c-0.790736,0.19663 -1.233172,0.422756 -1.430856,1.140457l-0.254165,0.924163c0,0.009832 -0.009414,0.019663 0,0.029495c0,0.009832 0.009414,0.019663 0.028241,0.019663l4.932687,0c0.103549,0 0.188271,0.088484 0.188271,0.19663s-0.084722,0.186799 -0.188271,0.186799z"/>
    <path stroke="null" id="svg_25" fill="#80D440" d="m14.179754,17.115968c-0.498917,-0.314609 -0.847217,-1.061805 -0.847217,-1.858158c0,-0.77669 0.602466,-1.396076 1.336721,-1.396076c0.263579,0 0.517744,0.078652 0.724841,0.216294"/>
    <path stroke="null" id="svg_26" fill="#6EA62A" d="m14.179754,17.312599c-0.037654,0 -0.065895,-0.009832 -0.094135,-0.029495c-0.564812,-0.353935 -0.941353,-1.169951 -0.941353,-2.025294c0,-0.875006 0.687187,-1.592707 1.524991,-1.592707c0.291819,0 0.583639,0.088484 0.82839,0.245788c0.084722,0.058989 0.112962,0.176967 0.056481,0.275283c-0.056481,0.088484 -0.169443,0.117978 -0.263579,0.058989c-0.178857,-0.117978 -0.404782,-0.186799 -0.621293,-0.186799c-0.630706,0 -1.14845,0.540734 -1.14845,1.199446c0,0.717701 0.310646,1.405908 0.753082,1.691022c0.084722,0.058989 0.112962,0.176967 0.065895,0.265451c-0.037654,0.068821 -0.094135,0.098315 -0.16003,0.098315z"/>
    <path stroke="null" id="svg_27" fill="#80D440" d="m17.069706,17.666534l0.376541,1.474729"/>
    <path stroke="null" id="svg_28" fill="#6EA62A" d="m17.446247,19.337893c-0.084722,0 -0.16003,-0.058989 -0.178857,-0.147473l-0.376541,-1.474729c-0.028241,-0.108147 0.028241,-0.216294 0.131789,-0.235957c0.103549,-0.029495 0.207098,0.039326 0.225925,0.137641l0.376541,1.474729c0.028241,0.108147 -0.028241,0.216294 -0.131789,0.235957c-0.018827,0.009832 -0.028241,0.009832 -0.047068,0.009832z"/>
    <path stroke="null" id="svg_29" fill="#D6913C" d="m14.904595,14.962864c0,-1.120794 0.866044,-2.025294 1.939186,-2.025294s1.939186,0.9045 1.939186,2.025294c0,1.48456 -0.866044,2.9003 -1.939186,2.9003s-1.939186,-1.405908 -1.939186,-2.9003l0,0z"/>
    <path stroke="null" id="svg_30" fill="#FF793B" d="m19.21599,21.490997l-5.968175,0c-0.225925,0 -0.385955,-0.226125 -0.329473,-0.45225l0.395368,-1.435403c0.207098,-0.747196 0.771909,-1.327256 1.496751,-1.523886l0.112962,-0.029495l0,0c0.103549,-0.029495 0.216511,0.009832 0.291819,0.098315c0.451849,0.540734 1.026074,0.599723 1.637953,0.599723s1.186104,-0.058989 1.637953,-0.599723c0.075308,-0.088484 0.188271,-0.12781 0.291819,-0.098315l0,0l0.122376,0.029495c0.724841,0.19663 1.289653,0.77669 1.496751,1.523886l0.169443,0.609555"/>
    <path stroke="null" id="svg_31" fill="#C6490F" d="m19.21599,21.687627l-5.968175,0c-0.16003,0 -0.32006,-0.078652 -0.414195,-0.216294c-0.103549,-0.137641 -0.141203,-0.314609 -0.094135,-0.481745l0.395368,-1.435403c0.225925,-0.816017 0.847217,-1.445234 1.62854,-1.661528l0.112962,-0.029495c0.169443,-0.049158 0.357714,0.009832 0.48009,0.157304c0.414195,0.491576 0.941353,0.530902 1.496751,0.530902s1.082555,-0.039326 1.496751,-0.530902c0.122376,-0.147473 0.310646,-0.206462 0.48009,-0.157304l0.112962,0.029495c0.781323,0.216294 1.412029,0.845511 1.637953,1.661528l0.169443,0.609555c0.028241,0.108147 -0.028241,0.216294 -0.131789,0.245788s-0.207098,-0.029495 -0.235338,-0.137641l-0.169443,-0.609555c-0.188271,-0.678375 -0.706014,-1.209278 -1.364961,-1.386245l-0.112962,-0.029495c-0.037654,-0.009832 -0.084722,0 -0.112962,0.039326c-0.50833,0.609555 -1.14845,0.658712 -1.769743,0.658712s-1.261412,-0.049158 -1.779156,-0.668544c-0.028241,-0.029495 -0.065895,-0.049158 -0.103549,-0.039326l-0.112962,0.029495c-0.649533,0.176967 -1.176691,0.70787 -1.364961,1.396076l-0.395368,1.435403c-0.009414,0.049158 0,0.098315 0.028241,0.137641c0.018827,0.019663 0.056481,0.058989 0.122376,0.058989l5.968175,0c0.103549,0 0.188271,0.088484 0.188271,0.19663s-0.084722,0.19663 -0.188271,0.19663z"/>
    <path stroke="null" id="svg_32" fill="#FF793B" d="m18.89593,21.490997l1.590886,0c0.225925,0 0.385955,-0.226125 0.329473,-0.45225l-0.395368,-1.435403"/>
    <path stroke="null" id="svg_33" fill="#C6490F" d="m20.486816,21.687627l-1.590886,0c-0.103549,0 -0.188271,-0.088484 -0.188271,-0.19663s0.084722,-0.19663 0.188271,-0.19663l1.590886,0c0.065895,0 0.103549,-0.039326 0.122376,-0.058989c0.028241,-0.039326 0.037654,-0.098315 0.028241,-0.147473l-0.395368,-1.435403c-0.028241,-0.108147 0.028241,-0.216294 0.131789,-0.245788s0.207098,0.029495 0.235338,0.137641l0.395368,1.435403c0.047068,0.176967 0.009414,0.353935 -0.094135,0.491576c-0.103549,0.137641 -0.263579,0.216294 -0.423609,0.216294z"/>
    <path stroke="null" id="svg_34" fill="#C47615" d="m18.764141,14.697413c-0.065895,1.592707 -1.007247,3.067436 -2.165111,3.067436c0.545984,-0.45225 1.007247,-1.533718 1.204931,-3.244403c0.64012,0.206462 0.96018,0.117978 0.96018,0.176967l0,0z"/>
    <path stroke="null" id="svg_35" fill="#A46210" d="m16.834368,18.059795c-1.14845,0 -2.118043,-1.41574 -2.118043,-3.09693c0,-0.058989 0,-0.117978 0.009414,-0.186799c0.018827,-0.108147 0.122376,-0.176967 0.225925,-0.157304c0.103549,0.019663 0.169443,0.12781 0.150616,0.235957c-0.009414,0.029495 -0.009414,0.068821 -0.009414,0.108147c0,1.435403 0.809563,2.703669 1.741502,2.703669s1.750916,-1.268267 1.750916,-2.703669c0,-0.108147 -0.009414,-0.216294 -0.028241,-0.304777c-0.018827,-0.108147 0.047068,-0.206462 0.150616,-0.226125s0.197684,0.049158 0.216511,0.157304c0.018827,0.117978 0.028241,0.245788 0.028241,0.383429c0.009414,1.641865 -0.98842,3.087099 -2.118043,3.087099z"/>
    <path stroke="null" id="svg_36" fill="#3A3030" d="m14.904595,14.815392c0.075308,-1.051973 0.913112,-1.877821 1.929773,-1.877821c0.96018,0 1.750916,0.727533 1.910946,1.681191c0,0 -0.818977,0.108147 -1.186104,-0.442419l-0.028241,0.068821c-0.301233,0.629218 -1.261412,0.953658 -2.485171,0.668544l-0.141203,-0.098315l0,0z"/>
    <path stroke="null" id="svg_37" fill="#231F20" d="m15.902429,15.218484c-0.282406,0 -0.583639,-0.039326 -0.903698,-0.108147l-0.037654,-0.009832l-0.254165,-0.186799l0.009414,-0.117978c0.084722,-1.150288 1.016661,-2.06462 2.118043,-2.06462c1.035488,0 1.920359,0.77669 2.099216,1.848327l0.037654,0.206462l-0.197684,0.029495c-0.028241,0 -0.715428,0.088484 -1.167277,-0.304777c-0.329473,0.45225 -0.941353,0.70787 -1.703848,0.70787zm-0.781323,-0.491576c1.044901,0.235957 1.958013,0 2.240419,-0.570228l0.16003,-0.393261l0.197684,0.294946c0.197684,0.294946 0.564812,0.353935 0.790736,0.363766c-0.225925,-0.766859 -0.894285,-1.297761 -1.675608,-1.297761c-0.875458,0 -1.609713,0.688207 -1.732089,1.582875l0.018827,0.019663z"/>
    <g stroke="null" transform="matrix(0.023533814215941876,0,0,0.0245788110578067,33.43405366566781,30.83824244743701) " id="svg_38"/>
    <g stroke="null" transform="matrix(0.023533814215941876,0,0,0.0245788110578067,33.43405366566781,30.83824244743701) " id="svg_39"/>
    <g stroke="null" transform="matrix(0.023533814215941876,0,0,0.0245788110578067,33.43405366566781,30.83824244743701) " id="svg_40"/>
    <g stroke="null" transform="matrix(0.023533814215941876,0,0,0.0245788110578067,33.43405366566781,30.83824244743701) " id="svg_41"/>
    <g stroke="null" transform="matrix(0.023533814215941876,0,0,0.0245788110578067,33.43405366566781,30.83824244743701) " id="svg_42"/>
    <g stroke="null" transform="matrix(0.023533814215941876,0,0,0.0245788110578067,33.43405366566781,30.83824244743701) " id="svg_43"/>
    <g stroke="null" transform="matrix(0.023533814215941876,0,0,0.0245788110578067,33.43405366566781,30.83824244743701) " id="svg_44"/>
    <g stroke="null" transform="matrix(0.023533814215941876,0,0,0.0245788110578067,33.43405366566781,30.83824244743701) " id="svg_45"/>
    <g stroke="null" transform="matrix(0.023533814215941876,0,0,0.0245788110578067,33.43405366566781,30.83824244743701) " id="svg_46"/>
    <g stroke="null" transform="matrix(0.023533814215941876,0,0,0.0245788110578067,33.43405366566781,30.83824244743701) " id="svg_47"/>
    <g stroke="null" transform="matrix(0.023533814215941876,0,0,0.0245788110578067,33.43405366566781,30.83824244743701) " id="svg_48"/>
    <g stroke="null" transform="matrix(0.023533814215941876,0,0,0.0245788110578067,33.43405366566781,30.83824244743701) " id="svg_49"/>
    <g stroke="null" transform="matrix(0.023533814215941876,0,0,0.0245788110578067,33.43405366566781,30.83824244743701) " id="svg_50"/>
    <g stroke="null" transform="matrix(0.023533814215941876,0,0,0.0245788110578067,33.43405366566781,30.83824244743701) " id="svg_51"/>
    <g stroke="null" transform="matrix(0.023533814215941876,0,0,0.0245788110578067,33.43405366566781,30.83824244743701) " id="svg_52"/>
   </g>
  </g>
 </g>
</svg>